<mxfile host="app.diagrams.net" agent="Mozilla/5.0 (Windows NT 10.0; Win64; x64) AppleWebKit/537.36 (KHTML, like Gecko) Chrome/131.0.0.0 Safari/537.36" version="26.0.8">
  <diagram name="Page-1" id="uNKYJ9B1QRNPPUBYC1YE">
    <mxGraphModel dx="2343" dy="1805" grid="1" gridSize="10" guides="1" tooltips="1" connect="1" arrows="1" fold="1" page="1" pageScale="1" pageWidth="850" pageHeight="1100" math="0" shadow="0">
      <root>
        <mxCell id="0" />
        <mxCell id="1" parent="0" />
        <mxCell id="82IDj3iVrOEZIIXz_pep-4" value="" style="endArrow=classic;html=1;rounded=0;exitX=1;exitY=0.3333333333333333;exitDx=0;exitDy=0;exitPerimeter=0;strokeColor=light-dark(#FEFEFE,#FFFFFF);" parent="1" source="82IDj3iVrOEZIIXz_pep-18" edge="1">
          <mxGeometry width="50" height="50" relative="1" as="geometry">
            <mxPoint x="160" y="-530" as="sourcePoint" />
            <mxPoint x="460" y="-540" as="targetPoint" />
            <Array as="points">
              <mxPoint x="300" y="-490" />
              <mxPoint x="330" y="-490" />
              <mxPoint x="390" y="-510" />
            </Array>
          </mxGeometry>
        </mxCell>
        <mxCell id="82IDj3iVrOEZIIXz_pep-7" value="FOOD DELIVERY MANAGMENT SYSTER&amp;nbsp;&lt;div&gt;OF BERNOS HOTEL&lt;/div&gt;" style="whiteSpace=wrap;html=1;align=center;" parent="1" vertex="1">
          <mxGeometry x="220" y="-810" width="480" height="40" as="geometry" />
        </mxCell>
        <mxCell id="82IDj3iVrOEZIIXz_pep-11" value="G" style="swimlane;startSize=0;" parent="1" vertex="1">
          <mxGeometry x="80" y="-750" width="800" height="780" as="geometry" />
        </mxCell>
        <mxCell id="82IDj3iVrOEZIIXz_pep-16" value="Browse" style="shape=ellipse;html=1;dashed=0;whiteSpace=wrap;perimeter=ellipsePerimeter;" parent="82IDj3iVrOEZIIXz_pep-11" vertex="1">
          <mxGeometry x="60" y="35" width="90" height="40" as="geometry" />
        </mxCell>
        <mxCell id="82IDj3iVrOEZIIXz_pep-20" value="submit order" style="shape=ellipse;html=1;dashed=0;whiteSpace=wrap;perimeter=ellipsePerimeter;" parent="82IDj3iVrOEZIIXz_pep-11" vertex="1">
          <mxGeometry x="120" y="220" width="70" height="30" as="geometry" />
        </mxCell>
        <mxCell id="82IDj3iVrOEZIIXz_pep-18" value="Place Order" style="shape=ellipse;html=1;dashed=0;whiteSpace=wrap;perimeter=ellipsePerimeter;" parent="82IDj3iVrOEZIIXz_pep-11" vertex="1">
          <mxGeometry x="245" y="100" width="70" height="30" as="geometry" />
        </mxCell>
        <mxCell id="82IDj3iVrOEZIIXz_pep-23" value="" style="endArrow=none;html=1;rounded=0;exitX=0;exitY=0.5;exitDx=0;exitDy=0;" parent="82IDj3iVrOEZIIXz_pep-11" source="82IDj3iVrOEZIIXz_pep-18" target="82IDj3iVrOEZIIXz_pep-16" edge="1">
          <mxGeometry width="50" height="50" relative="1" as="geometry">
            <mxPoint x="170" y="160" as="sourcePoint" />
            <mxPoint x="360" y="130" as="targetPoint" />
            <Array as="points">
              <mxPoint x="-30" y="140" />
            </Array>
          </mxGeometry>
        </mxCell>
        <mxCell id="V3vkMZOiI83B4uo7UNX7-14" value="login" style="shape=ellipse;html=1;dashed=0;whiteSpace=wrap;perimeter=ellipsePerimeter;" parent="82IDj3iVrOEZIIXz_pep-11" vertex="1">
          <mxGeometry x="300" y="200" width="130" height="35" as="geometry" />
        </mxCell>
        <mxCell id="V3vkMZOiI83B4uo7UNX7-24" value="view feedback" style="ellipse;whiteSpace=wrap;html=1;" parent="82IDj3iVrOEZIIXz_pep-11" vertex="1">
          <mxGeometry x="315" y="410" width="50" height="30" as="geometry" />
        </mxCell>
        <mxCell id="V3vkMZOiI83B4uo7UNX7-35" value="send notification" style="ellipse;whiteSpace=wrap;html=1;" parent="82IDj3iVrOEZIIXz_pep-11" vertex="1">
          <mxGeometry x="230" y="320" width="120" height="30" as="geometry" />
        </mxCell>
        <mxCell id="V3vkMZOiI83B4uo7UNX7-49" value="make payment" style="ellipse;whiteSpace=wrap;html=1;" parent="82IDj3iVrOEZIIXz_pep-11" vertex="1">
          <mxGeometry x="355" y="15" width="90" height="20" as="geometry" />
        </mxCell>
        <mxCell id="V3vkMZOiI83B4uo7UNX7-83" value="view order" style="ellipse;whiteSpace=wrap;html=1;aspect=fixed;" parent="82IDj3iVrOEZIIXz_pep-11" vertex="1">
          <mxGeometry x="180" y="540" width="50" height="50" as="geometry" />
        </mxCell>
        <mxCell id="V3vkMZOiI83B4uo7UNX7-91" value="" style="endArrow=none;html=1;rounded=0;entryX=0;entryY=0.5;entryDx=0;entryDy=0;" parent="82IDj3iVrOEZIIXz_pep-11" target="V3vkMZOiI83B4uo7UNX7-83" edge="1">
          <mxGeometry width="50" height="50" relative="1" as="geometry">
            <mxPoint x="-10" y="510" as="sourcePoint" />
            <mxPoint x="210" y="605" as="targetPoint" />
          </mxGeometry>
        </mxCell>
        <mxCell id="ZzZg2X5w5idnCTEN0x90-61" value="Text" style="edgeLabel;html=1;align=center;verticalAlign=middle;resizable=0;points=[];" vertex="1" connectable="0" parent="V3vkMZOiI83B4uo7UNX7-91">
          <mxGeometry x="-0.8404" y="1" relative="1" as="geometry">
            <mxPoint as="offset" />
          </mxGeometry>
        </mxCell>
        <mxCell id="V3vkMZOiI83B4uo7UNX7-98" value="update menu" style="ellipse;whiteSpace=wrap;html=1;aspect=fixed;" parent="82IDj3iVrOEZIIXz_pep-11" vertex="1">
          <mxGeometry x="540" y="192.5" width="50" height="50" as="geometry" />
        </mxCell>
        <mxCell id="V3vkMZOiI83B4uo7UNX7-97" value="" style="endArrow=none;html=1;rounded=0;" parent="82IDj3iVrOEZIIXz_pep-11" target="V3vkMZOiI83B4uo7UNX7-98" edge="1">
          <mxGeometry width="50" height="50" relative="1" as="geometry">
            <mxPoint x="870" y="130" as="sourcePoint" />
            <mxPoint x="740" y="90" as="targetPoint" />
          </mxGeometry>
        </mxCell>
        <mxCell id="V3vkMZOiI83B4uo7UNX7-99" value="track order" style="ellipse;whiteSpace=wrap;html=1;" parent="82IDj3iVrOEZIIXz_pep-11" vertex="1">
          <mxGeometry x="530" y="250" width="70" height="30" as="geometry" />
        </mxCell>
        <mxCell id="V3vkMZOiI83B4uo7UNX7-101" value="view order history" style="ellipse;whiteSpace=wrap;html=1;" parent="82IDj3iVrOEZIIXz_pep-11" vertex="1">
          <mxGeometry x="580" y="290" width="90" height="30" as="geometry" />
        </mxCell>
        <mxCell id="V3vkMZOiI83B4uo7UNX7-45" value="" style="endArrow=none;html=1;rounded=0;entryX=0;entryY=0.5;entryDx=0;entryDy=0;" parent="82IDj3iVrOEZIIXz_pep-11" target="V3vkMZOiI83B4uo7UNX7-14" edge="1">
          <mxGeometry width="50" height="50" relative="1" as="geometry">
            <mxPoint x="-30" y="140" as="sourcePoint" />
            <mxPoint x="185" y="173" as="targetPoint" />
          </mxGeometry>
        </mxCell>
        <mxCell id="ZzZg2X5w5idnCTEN0x90-16" value="choose food" style="ellipse;whiteSpace=wrap;html=1;" vertex="1" parent="82IDj3iVrOEZIIXz_pep-11">
          <mxGeometry x="390" y="45" width="85" height="20" as="geometry" />
        </mxCell>
        <mxCell id="V3vkMZOiI83B4uo7UNX7-44" value="view menu" style="ellipse;whiteSpace=wrap;html=1;" parent="82IDj3iVrOEZIIXz_pep-11" vertex="1">
          <mxGeometry x="160" y="70" width="70" height="30" as="geometry" />
        </mxCell>
        <mxCell id="ZzZg2X5w5idnCTEN0x90-18" value="choose drnk" style="ellipse;whiteSpace=wrap;html=1;" vertex="1" parent="82IDj3iVrOEZIIXz_pep-11">
          <mxGeometry x="430" y="75" width="82.5" height="30" as="geometry" />
        </mxCell>
        <mxCell id="ZzZg2X5w5idnCTEN0x90-22" value="Text" style="text;html=1;align=center;verticalAlign=middle;resizable=0;points=[];autosize=1;strokeColor=none;fillColor=none;" vertex="1" parent="82IDj3iVrOEZIIXz_pep-11">
          <mxGeometry x="395" y="35" width="50" height="30" as="geometry" />
        </mxCell>
        <mxCell id="ZzZg2X5w5idnCTEN0x90-33" value="send feedback" style="ellipse;whiteSpace=wrap;html=1;" vertex="1" parent="82IDj3iVrOEZIIXz_pep-11">
          <mxGeometry x="420" y="340" width="70" height="30" as="geometry" />
        </mxCell>
        <mxCell id="ZzZg2X5w5idnCTEN0x90-24" value="" style="endArrow=none;html=1;rounded=0;entryX=0;entryY=0.5;entryDx=0;entryDy=0;exitX=0;exitY=0.5;exitDx=0;exitDy=0;" edge="1" parent="82IDj3iVrOEZIIXz_pep-11" source="V3vkMZOiI83B4uo7UNX7-44" target="V3vkMZOiI83B4uo7UNX7-44">
          <mxGeometry width="50" height="50" relative="1" as="geometry">
            <mxPoint x="150" y="105" as="sourcePoint" />
            <mxPoint x="570" y="300" as="targetPoint" />
            <Array as="points">
              <mxPoint x="-30" y="140" />
            </Array>
          </mxGeometry>
        </mxCell>
        <mxCell id="ZzZg2X5w5idnCTEN0x90-47" value="etxend&amp;gt;" style="html=1;verticalAlign=bottom;endArrow=open;dashed=1;endSize=8;curved=0;rounded=0;entryX=1;entryY=0.5;entryDx=0;entryDy=0;" edge="1" parent="82IDj3iVrOEZIIXz_pep-11" source="ZzZg2X5w5idnCTEN0x90-33" target="V3vkMZOiI83B4uo7UNX7-24">
          <mxGeometry relative="1" as="geometry">
            <mxPoint x="590" y="250" as="sourcePoint" />
            <mxPoint x="510" y="250" as="targetPoint" />
          </mxGeometry>
        </mxCell>
        <mxCell id="ZzZg2X5w5idnCTEN0x90-49" value="include&amp;gt;" style="endArrow=open;endSize=12;dashed=1;html=1;rounded=0;exitX=0.5;exitY=0;exitDx=0;exitDy=0;entryX=0;entryY=1;entryDx=0;entryDy=0;" edge="1" parent="82IDj3iVrOEZIIXz_pep-11" source="82IDj3iVrOEZIIXz_pep-18" target="V3vkMZOiI83B4uo7UNX7-49">
          <mxGeometry width="160" relative="1" as="geometry">
            <mxPoint x="470" y="250" as="sourcePoint" />
            <mxPoint x="630" y="250" as="targetPoint" />
          </mxGeometry>
        </mxCell>
        <mxCell id="ZzZg2X5w5idnCTEN0x90-50" value="include&amp;gt;" style="endArrow=open;endSize=12;dashed=1;html=1;rounded=0;exitX=1;exitY=0;exitDx=0;exitDy=0;" edge="1" parent="82IDj3iVrOEZIIXz_pep-11" source="82IDj3iVrOEZIIXz_pep-18" target="ZzZg2X5w5idnCTEN0x90-22">
          <mxGeometry width="160" relative="1" as="geometry">
            <mxPoint x="470" y="250" as="sourcePoint" />
            <mxPoint x="630" y="250" as="targetPoint" />
          </mxGeometry>
        </mxCell>
        <mxCell id="ZzZg2X5w5idnCTEN0x90-53" value="include&amp;gt;" style="endArrow=open;endSize=12;dashed=1;html=1;rounded=0;exitX=1;exitY=1;exitDx=0;exitDy=0;entryX=0;entryY=1;entryDx=0;entryDy=0;" edge="1" parent="82IDj3iVrOEZIIXz_pep-11" source="82IDj3iVrOEZIIXz_pep-18" target="ZzZg2X5w5idnCTEN0x90-18">
          <mxGeometry width="160" relative="1" as="geometry">
            <mxPoint x="470" y="250" as="sourcePoint" />
            <mxPoint x="630" y="250" as="targetPoint" />
          </mxGeometry>
        </mxCell>
        <mxCell id="ZzZg2X5w5idnCTEN0x90-60" value="&amp;lt;extend&amp;gt;" style="html=1;verticalAlign=bottom;endArrow=open;dashed=1;endSize=8;curved=0;rounded=0;entryX=1;entryY=0.5;entryDx=0;entryDy=0;exitX=0.362;exitY=0.967;exitDx=0;exitDy=0;exitPerimeter=0;" edge="1" parent="82IDj3iVrOEZIIXz_pep-11" source="82IDj3iVrOEZIIXz_pep-18" target="82IDj3iVrOEZIIXz_pep-20">
          <mxGeometry x="-0.0092" relative="1" as="geometry">
            <mxPoint x="590" y="280" as="sourcePoint" />
            <mxPoint x="510" y="280" as="targetPoint" />
            <mxPoint as="offset" />
          </mxGeometry>
        </mxCell>
        <mxCell id="ZzZg2X5w5idnCTEN0x90-63" value="return" style="html=1;verticalAlign=bottom;endArrow=open;dashed=1;endSize=8;curved=0;rounded=0;exitX=0;exitY=0;exitDx=0;exitDy=0;entryX=0.681;entryY=0.922;entryDx=0;entryDy=0;entryPerimeter=0;" edge="1" parent="82IDj3iVrOEZIIXz_pep-11" source="V3vkMZOiI83B4uo7UNX7-35" target="82IDj3iVrOEZIIXz_pep-20">
          <mxGeometry relative="1" as="geometry">
            <mxPoint x="590" y="280" as="sourcePoint" />
            <mxPoint x="180" y="260" as="targetPoint" />
          </mxGeometry>
        </mxCell>
        <mxCell id="82IDj3iVrOEZIIXz_pep-12" value="customer" style="shape=umlActor;verticalLabelPosition=bottom;verticalAlign=top;html=1;outlineConnect=0;" parent="1" vertex="1">
          <mxGeometry x="10" y="-640" width="30" height="40" as="geometry" />
        </mxCell>
        <mxCell id="82IDj3iVrOEZIIXz_pep-13" value="hotel admin" style="shape=umlActor;verticalLabelPosition=bottom;verticalAlign=top;html=1;outlineConnect=0;" parent="1" vertex="1">
          <mxGeometry x="950" y="-650" width="20" height="40" as="geometry" />
        </mxCell>
        <mxCell id="82IDj3iVrOEZIIXz_pep-15" value="delivery person" style="shape=umlActor;verticalLabelPosition=bottom;verticalAlign=top;html=1;outlineConnect=0;" parent="1" vertex="1">
          <mxGeometry x="910" y="-250" width="25" height="40" as="geometry" />
        </mxCell>
        <mxCell id="82IDj3iVrOEZIIXz_pep-19" value="" style="endArrow=classic;html=1;rounded=0;exitX=1;exitY=0.3333333333333333;exitDx=0;exitDy=0;exitPerimeter=0;strokeColor=light-dark(#FEFEFE,#FFFFFF);" parent="1" target="82IDj3iVrOEZIIXz_pep-18" edge="1">
          <mxGeometry width="50" height="50" relative="1" as="geometry">
            <mxPoint x="160" y="-530" as="sourcePoint" />
            <mxPoint x="460" y="-540" as="targetPoint" />
            <Array as="points">
              <mxPoint x="200" y="-560" />
            </Array>
          </mxGeometry>
        </mxCell>
        <mxCell id="V3vkMZOiI83B4uo7UNX7-1" value="system admin" style="shape=umlActor;verticalLabelPosition=bottom;verticalAlign=top;html=1;outlineConnect=0;" parent="1" vertex="1">
          <mxGeometry x="15" y="-480" width="20" height="40" as="geometry" />
        </mxCell>
        <mxCell id="V3vkMZOiI83B4uo7UNX7-2" style="edgeStyle=orthogonalEdgeStyle;rounded=0;orthogonalLoop=1;jettySize=auto;html=1;exitX=0.75;exitY=0.1;exitDx=0;exitDy=0;exitPerimeter=0;entryX=0.5;entryY=0.5;entryDx=0;entryDy=0;entryPerimeter=0;" parent="1" source="V3vkMZOiI83B4uo7UNX7-1" target="V3vkMZOiI83B4uo7UNX7-1" edge="1">
          <mxGeometry relative="1" as="geometry" />
        </mxCell>
        <mxCell id="V3vkMZOiI83B4uo7UNX7-5" value="kichen staff" style="shape=umlActor;verticalLabelPosition=bottom;verticalAlign=top;html=1;outlineConnect=0;" parent="1" vertex="1">
          <mxGeometry x="10" y="-280" width="20" height="40" as="geometry" />
        </mxCell>
        <mxCell id="V3vkMZOiI83B4uo7UNX7-32" value="" style="endArrow=none;html=1;rounded=0;entryX=0;entryY=0.5;entryDx=0;entryDy=0;" parent="1" target="V3vkMZOiI83B4uo7UNX7-24" edge="1">
          <mxGeometry width="50" height="50" relative="1" as="geometry">
            <mxPoint x="50" y="-450" as="sourcePoint" />
            <mxPoint x="600" y="-460" as="targetPoint" />
          </mxGeometry>
        </mxCell>
        <mxCell id="V3vkMZOiI83B4uo7UNX7-36" value="" style="endArrow=none;html=1;rounded=0;entryX=0;entryY=0.5;entryDx=0;entryDy=0;" parent="1" target="V3vkMZOiI83B4uo7UNX7-35" edge="1">
          <mxGeometry width="50" height="50" relative="1" as="geometry">
            <mxPoint x="50" y="-450" as="sourcePoint" />
            <mxPoint x="610" y="-460" as="targetPoint" />
          </mxGeometry>
        </mxCell>
        <mxCell id="V3vkMZOiI83B4uo7UNX7-43" value="" style="endArrow=none;html=1;rounded=0;entryX=0;entryY=1;entryDx=0;entryDy=0;" parent="1" target="V3vkMZOiI83B4uo7UNX7-24" edge="1">
          <mxGeometry width="50" height="50" relative="1" as="geometry">
            <mxPoint x="60" y="-240" as="sourcePoint" />
            <mxPoint x="610" y="-460" as="targetPoint" />
          </mxGeometry>
        </mxCell>
        <mxCell id="V3vkMZOiI83B4uo7UNX7-54" value="" style="endArrow=none;html=1;rounded=0;entryX=0.5;entryY=1;entryDx=0;entryDy=0;" parent="1" target="82IDj3iVrOEZIIXz_pep-16" edge="1">
          <mxGeometry width="50" height="50" relative="1" as="geometry">
            <mxPoint x="50" y="-450" as="sourcePoint" />
            <mxPoint x="620" y="-540" as="targetPoint" />
          </mxGeometry>
        </mxCell>
        <mxCell id="V3vkMZOiI83B4uo7UNX7-90" value="" style="endArrow=none;html=1;rounded=0;exitX=1.02;exitY=0.7;exitDx=0;exitDy=0;exitPerimeter=0;" parent="1" source="V3vkMZOiI83B4uo7UNX7-83" target="82IDj3iVrOEZIIXz_pep-15" edge="1">
          <mxGeometry width="50" height="50" relative="1" as="geometry">
            <mxPoint x="490" y="-140" as="sourcePoint" />
            <mxPoint x="540" y="-190" as="targetPoint" />
          </mxGeometry>
        </mxCell>
        <mxCell id="V3vkMZOiI83B4uo7UNX7-100" value="" style="endArrow=none;html=1;rounded=0;exitX=1;exitY=0;exitDx=0;exitDy=0;" parent="1" source="V3vkMZOiI83B4uo7UNX7-99" edge="1">
          <mxGeometry width="50" height="50" relative="1" as="geometry">
            <mxPoint x="490" y="-440" as="sourcePoint" />
            <mxPoint x="950" y="-620" as="targetPoint" />
          </mxGeometry>
        </mxCell>
        <mxCell id="V3vkMZOiI83B4uo7UNX7-102" value="" style="endArrow=none;html=1;rounded=0;exitX=0.778;exitY=0;exitDx=0;exitDy=0;exitPerimeter=0;" parent="1" source="V3vkMZOiI83B4uo7UNX7-101" edge="1">
          <mxGeometry width="50" height="50" relative="1" as="geometry">
            <mxPoint x="490" y="-440" as="sourcePoint" />
            <mxPoint x="950" y="-620" as="targetPoint" />
          </mxGeometry>
        </mxCell>
        <mxCell id="ZzZg2X5w5idnCTEN0x90-1" style="edgeStyle=orthogonalEdgeStyle;rounded=0;orthogonalLoop=1;jettySize=auto;html=1;exitX=1;exitY=0;exitDx=0;exitDy=0;entryX=0.987;entryY=0.006;entryDx=0;entryDy=0;entryPerimeter=0;" edge="1" parent="1" source="82IDj3iVrOEZIIXz_pep-11" target="82IDj3iVrOEZIIXz_pep-11">
          <mxGeometry relative="1" as="geometry" />
        </mxCell>
        <mxCell id="ZzZg2X5w5idnCTEN0x90-13" value="" style="endArrow=none;html=1;rounded=0;exitX=0;exitY=0;exitDx=0;exitDy=0;" edge="1" parent="1" source="82IDj3iVrOEZIIXz_pep-20">
          <mxGeometry width="50" height="50" relative="1" as="geometry">
            <mxPoint x="600" y="-350" as="sourcePoint" />
            <mxPoint x="50" y="-610" as="targetPoint" />
          </mxGeometry>
        </mxCell>
        <mxCell id="ZzZg2X5w5idnCTEN0x90-27" value="&amp;nbsp;" style="text;html=1;align=center;verticalAlign=middle;resizable=0;points=[];autosize=1;strokeColor=none;fillColor=none;" vertex="1" parent="1">
          <mxGeometry x="1225" y="-332" width="30" height="30" as="geometry" />
        </mxCell>
        <mxCell id="ZzZg2X5w5idnCTEN0x90-34" value="" style="endArrow=none;html=1;rounded=0;entryX=0;entryY=0;entryDx=0;entryDy=0;" edge="1" parent="1" target="ZzZg2X5w5idnCTEN0x90-33">
          <mxGeometry width="50" height="50" relative="1" as="geometry">
            <mxPoint x="50" y="-610" as="sourcePoint" />
            <mxPoint x="650" y="-470" as="targetPoint" />
          </mxGeometry>
        </mxCell>
        <mxCell id="ZzZg2X5w5idnCTEN0x90-64" value="" style="endArrow=none;html=1;rounded=0;entryX=0.079;entryY=0.638;entryDx=0;entryDy=0;entryPerimeter=0;" edge="1" parent="1" target="V3vkMZOiI83B4uo7UNX7-14">
          <mxGeometry width="50" height="50" relative="1" as="geometry">
            <mxPoint x="50" y="-450" as="sourcePoint" />
            <mxPoint x="370" y="-500" as="targetPoint" />
          </mxGeometry>
        </mxCell>
        <mxCell id="ZzZg2X5w5idnCTEN0x90-66" value="" style="endArrow=none;html=1;rounded=0;exitX=1;exitY=0.5;exitDx=0;exitDy=0;" edge="1" parent="1" source="V3vkMZOiI83B4uo7UNX7-14">
          <mxGeometry width="50" height="50" relative="1" as="geometry">
            <mxPoint x="610" y="-430" as="sourcePoint" />
            <mxPoint x="950" y="-620" as="targetPoint" />
          </mxGeometry>
        </mxCell>
        <mxCell id="ZzZg2X5w5idnCTEN0x90-67" value="" style="endArrow=none;html=1;rounded=0;entryX=0;entryY=1;entryDx=0;entryDy=0;" edge="1" parent="1">
          <mxGeometry width="50" height="50" relative="1" as="geometry">
            <mxPoint x="60" y="-240" as="sourcePoint" />
            <mxPoint x="409.17464655452704" y="-520.0889667751842" as="targetPoint" />
          </mxGeometry>
        </mxCell>
        <mxCell id="ZzZg2X5w5idnCTEN0x90-70" value="" style="endArrow=none;html=1;rounded=0;exitX=0.674;exitY=0.905;exitDx=0;exitDy=0;exitPerimeter=0;" edge="1" parent="1" source="V3vkMZOiI83B4uo7UNX7-14">
          <mxGeometry width="50" height="50" relative="1" as="geometry">
            <mxPoint x="610" y="-430" as="sourcePoint" />
            <mxPoint x="910" y="-230" as="targetPoint" />
          </mxGeometry>
        </mxCell>
      </root>
    </mxGraphModel>
  </diagram>
</mxfile>
